<svg width="16" height="12" viewBox="0 0 16 12" fill="none" xmlns="http://www.w3.org/2000/svg">
<path fill-rule="evenodd" clip-rule="evenodd" d="M8.3004 2.69635C10.5348 2.69645 12.6838 3.55501 14.3031 5.09456C14.4251 5.21342 14.62 5.21192 14.7401 5.0912L15.9058 3.91479C15.9666 3.85356 16.0005 3.77062 16 3.68432C15.9995 3.59803 15.9646 3.51549 15.9031 3.45498C11.6527 -0.618333 4.94737 -0.618333 0.697047 3.45498C0.635477 3.51544 0.600547 3.59796 0.599983 3.68425C0.599408 3.77055 0.633259 3.85351 0.694022 3.91479L1.86003 5.0912C1.98004 5.21211 2.17511 5.21361 2.29698 5.09456C3.91655 3.5549 6.06577 2.69635 8.3004 2.69635ZM8.3004 6.52374C9.52806 6.52366 10.7119 6.97998 11.6219 7.80402C11.745 7.92097 11.9389 7.91843 12.0589 7.7983L13.2232 6.62189C13.2845 6.56018 13.3185 6.47647 13.3177 6.38948C13.3168 6.3025 13.281 6.2195 13.2185 6.15905C10.4473 3.58131 6.15582 3.58131 3.38466 6.15905C3.32206 6.2195 3.28635 6.30254 3.28553 6.38955C3.2847 6.47657 3.31885 6.56027 3.38028 6.62189L4.54427 7.7983C4.66425 7.91843 4.85814 7.92097 4.98122 7.80402C5.89063 6.98052 7.07354 6.52425 8.3004 6.52374ZM10.5379 9.33134C10.6002 9.27023 10.6345 9.18613 10.6327 9.0989C10.6309 9.01167 10.5932 8.92904 10.5285 8.87052C9.2423 7.78262 7.35849 7.78262 6.07226 8.87052C6.00751 8.929 5.96974 9.0116 5.9679 9.09883C5.96605 9.18606 6.00029 9.27018 6.06251 9.33134L8.07688 11.3639C8.13592 11.4236 8.2164 11.4572 8.3004 11.4572C8.38439 11.4572 8.46487 11.4236 8.52391 11.3639L10.5379 9.33134Z" fill="white"/>
</svg>
