<svg width="22" height="22" viewBox="0 0 22 22" fill="none" xmlns="http://www.w3.org/2000/svg">
<path d="M5.20963 13.1696L4.48561 15.8725L1.83934 15.9285C1.0485 14.4616 0.599915 12.7834 0.599915 10.9999C0.599915 9.27535 1.01933 7.64905 1.76276 6.21706H1.76333L4.11926 6.64898L5.1513 8.99077C4.93529 9.6205 4.81756 10.2965 4.81756 10.9999C4.81764 11.7633 4.95593 12.4948 5.20963 13.1696Z" fill="#FBBB00"/>
<path d="M21.2183 9.05708C21.3378 9.6862 21.4001 10.3359 21.4001 10.9999C21.4001 11.7445 21.3218 12.4708 21.1726 13.1714C20.6664 15.5554 19.3435 17.6371 17.511 19.1102L17.5104 19.1097L14.543 18.9583L14.123 16.3365C15.339 15.6234 16.2893 14.5074 16.7899 13.1714H11.2287V9.05708H16.871H21.2183Z" fill="#518EF8"/>
<path d="M17.51 19.1097L17.5106 19.1103C15.7283 20.5429 13.4643 21.4 10.9997 21.4C7.03917 21.4 3.59576 19.1863 1.83917 15.9286L5.20946 13.1698C6.08774 15.5137 8.34888 17.1823 10.9997 17.1823C12.1392 17.1823 13.2066 16.8743 14.1226 16.3366L17.51 19.1097Z" fill="#28B446"/>
<path d="M17.6382 2.99427L14.269 5.75254C13.3211 5.15999 12.2005 4.81768 10.9999 4.81768C8.28904 4.81768 5.9856 6.56281 5.15133 8.99084L1.76333 6.21713H1.76276C3.49363 2.87999 6.98047 0.599991 10.9999 0.599991C13.5233 0.599991 15.837 1.49886 17.6382 2.99427Z" fill="#F14336"/>
</svg>
